<svg width="91" height="34" viewBox="0 0 91 34" fill="none" xmlns="http://www.w3.org/2000/svg">
<mask id="path-1-outside-1_4_76" maskUnits="userSpaceOnUse" x="-3" y="-3" width="97" height="40" fill="black">
<rect fill="white" x="-3" y="-3" width="97" height="40"/>
<path d="M5.31375 27.192C4.35375 27.192 3.55375 27.1067 2.91375 26.936C2.27375 26.744 1.76175 26.4453 1.37775 26.04C0.99375 25.6347 0.716417 25.112 0.54575 24.472C0.396417 23.832 0.32175 23.0533 0.32175 22.136V4.568C0.32175 4.03467 0.407083 3.56533 0.57775 3.16C0.76975 2.75466 1.01508 2.41333 1.31375 2.136C1.63375 1.85867 1.99642 1.656 2.40175 1.528C2.80708 1.37867 3.22308 1.304 3.64975 1.304C4.07642 1.304 4.49242 1.37867 4.89775 1.528C5.30308 1.656 5.65508 1.85867 5.95375 2.136C6.27375 2.41333 6.51908 2.75466 6.68975 3.16C6.88175 3.56533 6.97775 4.03467 6.97775 4.568V20.664C6.97775 21.048 7.04175 21.304 7.16975 21.432C7.29775 21.5387 7.54308 21.592 7.90575 21.592H15.0098C15.4791 21.592 15.8738 21.6773 16.1938 21.848C16.5351 21.9973 16.8018 22.2107 16.9938 22.488C17.2071 22.744 17.3564 23.0427 17.4418 23.384C17.5484 23.704 17.6018 24.024 17.6018 24.344C17.6018 24.664 17.5484 24.9947 17.4418 25.336C17.3564 25.6773 17.2071 25.9867 16.9938 26.264C16.7804 26.5413 16.5138 26.7653 16.1938 26.936C15.8738 27.1067 15.4791 27.192 15.0098 27.192H5.31375ZM19.2503 15.992C19.2503 14.264 19.5276 12.8347 20.0823 11.704C20.6369 10.5733 21.3623 9.66667 22.2583 8.984C23.1543 8.30133 24.1463 7.82133 25.2343 7.544C26.3436 7.26667 27.4423 7.128 28.5303 7.128C29.5969 7.128 30.6743 7.26667 31.7623 7.544C32.8716 7.82133 33.8743 8.30133 34.7703 8.984C35.6663 9.66667 36.3916 10.5733 36.9463 11.704C37.5223 12.8347 37.8103 14.264 37.8103 15.992V18.936C37.8103 20.664 37.5223 22.0933 36.9463 23.224C36.3916 24.3547 35.6663 25.2613 34.7703 25.944C33.8743 26.6267 32.8716 27.1067 31.7623 27.384C30.6743 27.6613 29.5969 27.8 28.5303 27.8C27.4636 27.8 26.3756 27.6613 25.2663 27.384C24.1783 27.1067 23.1863 26.6267 22.2903 25.944C21.3943 25.2613 20.6583 24.3547 20.0823 23.224C19.5276 22.0933 19.2503 20.664 19.2503 18.936V15.992ZM31.3783 15.704C31.3783 15.128 31.2929 14.648 31.1223 14.264C30.9516 13.8587 30.7276 13.528 30.4503 13.272C30.1943 13.016 29.8956 12.8347 29.5543 12.728C29.2129 12.6 28.8716 12.536 28.5303 12.536C28.1889 12.536 27.8476 12.6 27.5063 12.728C27.1649 12.8347 26.8556 13.016 26.5783 13.272C26.3223 13.528 26.1089 13.8587 25.9383 14.264C25.7676 14.648 25.6823 15.128 25.6823 15.704V19.224C25.6823 19.8 25.7676 20.2907 25.9383 20.696C26.1089 21.08 26.3223 21.4 26.5783 21.656C26.8556 21.912 27.1649 22.104 27.5063 22.232C27.8476 22.3387 28.1889 22.392 28.5303 22.392C28.8716 22.392 29.2129 22.3387 29.5543 22.232C29.8956 22.104 30.1943 21.912 30.4503 21.656C30.7276 21.4 30.9516 21.08 31.1223 20.696C31.2929 20.2907 31.3783 19.8 31.3783 19.224V15.704ZM58.9963 24.792C58.9963 25.6667 58.8683 26.5733 58.6123 27.512C58.3776 28.4507 57.8976 29.304 57.1723 30.072C56.4683 30.8613 55.4549 31.5227 54.1323 32.056C52.8096 32.6107 51.0709 32.9307 48.9163 33.016C48.6176 33.0373 48.2549 33.0267 47.8283 32.984C47.4229 32.9627 46.9963 32.9093 46.5483 32.824C46.1003 32.76 45.6736 32.664 45.2683 32.536C44.8629 32.4293 44.5323 32.3013 44.2763 32.152C43.7856 31.8747 43.4336 31.4267 43.2203 30.808C43.0283 30.2107 43.0389 29.6347 43.2523 29.08C43.4443 28.568 43.7749 28.1627 44.2443 27.864C44.7136 27.5653 45.2256 27.4587 45.7803 27.544C46.2496 27.608 46.7403 27.672 47.2523 27.736C47.7643 27.8 48.3189 27.832 48.9163 27.832C49.5989 27.832 50.1856 27.7467 50.6763 27.576C51.1669 27.4267 51.5723 27.2133 51.8923 26.936C52.2123 26.6587 52.4469 26.3493 52.5963 26.008C52.7456 25.6667 52.8203 25.3147 52.8203 24.952V24.376C52.2656 24.9307 51.6043 25.368 50.8363 25.688C50.0683 25.9867 49.1936 26.136 48.2123 26.136C47.1456 26.136 46.1429 25.9973 45.2043 25.72C44.2869 25.4427 43.4763 24.9733 42.7723 24.312C42.0683 23.6293 41.5136 22.7333 41.1083 21.624C40.7029 20.4933 40.5003 19.096 40.5003 17.432V16.024C40.5003 14.3387 40.7029 12.9307 41.1083 11.8C41.5136 10.6693 42.0683 9.76267 42.7723 9.08C43.4763 8.39733 44.2976 7.91733 45.2363 7.64C46.1749 7.34133 47.1776 7.192 48.2443 7.192C49.0549 7.192 49.8656 7.34133 50.6763 7.64C51.4869 7.93867 52.2016 8.38667 52.8203 8.984C53.0763 8.38667 53.4709 7.93867 54.0043 7.64C54.5589 7.34133 55.1563 7.192 55.7963 7.192C56.6496 7.192 57.3963 7.45867 58.0363 7.992C58.6763 8.52533 58.9963 9.32533 58.9963 10.392V24.792ZM47.0923 18.008C47.0923 18.5627 47.1776 19.0213 47.3483 19.384C47.5403 19.7467 47.7643 20.0453 48.0203 20.28C48.2976 20.5147 48.5963 20.6853 48.9163 20.792C49.2363 20.8773 49.5349 20.92 49.8123 20.92C50.0896 20.92 50.3776 20.8773 50.6763 20.792C50.9963 20.6853 51.2843 20.5253 51.5403 20.312C51.8176 20.0987 52.0523 19.8213 52.2443 19.48C52.4363 19.1173 52.5429 18.68 52.5643 18.168V15.416C52.5429 14.904 52.4363 14.4773 52.2443 14.136C52.0523 13.7733 51.8176 13.4853 51.5403 13.272C51.2843 13.0587 50.9963 12.9093 50.6763 12.824C50.3776 12.7173 50.0896 12.664 49.8123 12.664C49.5349 12.664 49.2363 12.7173 48.9163 12.824C48.5963 12.9093 48.2976 13.0693 48.0203 13.304C47.7643 13.5387 47.5403 13.848 47.3483 14.232C47.1776 14.5947 47.0923 15.0427 47.0923 15.576V18.008ZM62.3538 10.616C62.3538 9.50667 62.6738 8.696 63.3138 8.184C63.9751 7.672 64.7538 7.416 65.6498 7.416C66.5458 7.416 67.3138 7.672 67.9538 8.184C68.6151 8.696 68.9458 9.50667 68.9458 10.616V27.192H62.3538V10.616ZM62.3218 3.096C62.3218 2.05066 62.6524 1.304 63.3138 0.855999C63.9751 0.386665 64.7538 0.151999 65.6498 0.151999C66.5458 0.151999 67.3244 0.386665 67.9858 0.855999C68.6471 1.304 68.9778 2.05066 68.9778 3.096C68.9778 3.62933 68.8818 4.088 68.6898 4.472C68.5191 4.83467 68.2844 5.13333 67.9858 5.368C67.6871 5.60267 67.3351 5.77333 66.9298 5.88C66.5244 5.98667 66.0978 6.04 65.6498 6.04C65.2018 6.04 64.7751 5.98667 64.3698 5.88C63.9644 5.77333 63.6124 5.60267 63.3138 5.368C63.0151 5.13333 62.7698 4.83467 62.5778 4.472C62.4071 4.088 62.3218 3.62933 62.3218 3.096ZM72.3188 27.192V10.392C72.3188 9.85867 72.4041 9.4 72.5748 9.016C72.7668 8.61067 73.0121 8.28 73.3108 8.024C73.6094 7.74667 73.9508 7.544 74.3348 7.416C74.7188 7.26667 75.1241 7.192 75.5508 7.192C76.1694 7.192 76.7454 7.34133 77.2788 7.64C77.8334 7.93867 78.2494 8.376 78.5268 8.952C79.1454 8.376 79.8601 7.93867 80.6708 7.64C81.5028 7.34133 82.3454 7.192 83.1988 7.192C84.2228 7.192 85.1721 7.33067 86.0468 7.608C86.9428 7.88533 87.7108 8.36533 88.3507 9.048C89.0121 9.70933 89.5348 10.6053 89.9188 11.736C90.3028 12.8667 90.4948 14.2747 90.4948 15.96V27.192H83.9028V15.576C83.9028 15.0427 83.8174 14.5947 83.6468 14.232C83.4974 13.848 83.2948 13.5387 83.0388 13.304C82.8041 13.0693 82.5374 12.9093 82.2388 12.824C81.9401 12.7173 81.6521 12.664 81.3748 12.664C81.0974 12.664 80.8094 12.7173 80.5108 12.824C80.2121 12.9093 79.9348 13.0693 79.6788 13.304C79.4228 13.5387 79.2094 13.848 79.0388 14.232C78.8894 14.5947 78.8148 15.0427 78.8148 15.576V27.192H72.3188Z"/>
</mask>
<path d="M5.31375 27.192C4.35375 27.192 3.55375 27.1067 2.91375 26.936C2.27375 26.744 1.76175 26.4453 1.37775 26.04C0.99375 25.6347 0.716417 25.112 0.54575 24.472C0.396417 23.832 0.32175 23.0533 0.32175 22.136V4.568C0.32175 4.03467 0.407083 3.56533 0.57775 3.16C0.76975 2.75466 1.01508 2.41333 1.31375 2.136C1.63375 1.85867 1.99642 1.656 2.40175 1.528C2.80708 1.37867 3.22308 1.304 3.64975 1.304C4.07642 1.304 4.49242 1.37867 4.89775 1.528C5.30308 1.656 5.65508 1.85867 5.95375 2.136C6.27375 2.41333 6.51908 2.75466 6.68975 3.16C6.88175 3.56533 6.97775 4.03467 6.97775 4.568V20.664C6.97775 21.048 7.04175 21.304 7.16975 21.432C7.29775 21.5387 7.54308 21.592 7.90575 21.592H15.0098C15.4791 21.592 15.8738 21.6773 16.1938 21.848C16.5351 21.9973 16.8018 22.2107 16.9938 22.488C17.2071 22.744 17.3564 23.0427 17.4418 23.384C17.5484 23.704 17.6018 24.024 17.6018 24.344C17.6018 24.664 17.5484 24.9947 17.4418 25.336C17.3564 25.6773 17.2071 25.9867 16.9938 26.264C16.7804 26.5413 16.5138 26.7653 16.1938 26.936C15.8738 27.1067 15.4791 27.192 15.0098 27.192H5.31375ZM19.2503 15.992C19.2503 14.264 19.5276 12.8347 20.0823 11.704C20.6369 10.5733 21.3623 9.66667 22.2583 8.984C23.1543 8.30133 24.1463 7.82133 25.2343 7.544C26.3436 7.26667 27.4423 7.128 28.5303 7.128C29.5969 7.128 30.6743 7.26667 31.7623 7.544C32.8716 7.82133 33.8743 8.30133 34.7703 8.984C35.6663 9.66667 36.3916 10.5733 36.9463 11.704C37.5223 12.8347 37.8103 14.264 37.8103 15.992V18.936C37.8103 20.664 37.5223 22.0933 36.9463 23.224C36.3916 24.3547 35.6663 25.2613 34.7703 25.944C33.8743 26.6267 32.8716 27.1067 31.7623 27.384C30.6743 27.6613 29.5969 27.8 28.5303 27.8C27.4636 27.8 26.3756 27.6613 25.2663 27.384C24.1783 27.1067 23.1863 26.6267 22.2903 25.944C21.3943 25.2613 20.6583 24.3547 20.0823 23.224C19.5276 22.0933 19.2503 20.664 19.2503 18.936V15.992ZM31.3783 15.704C31.3783 15.128 31.2929 14.648 31.1223 14.264C30.9516 13.8587 30.7276 13.528 30.4503 13.272C30.1943 13.016 29.8956 12.8347 29.5543 12.728C29.2129 12.6 28.8716 12.536 28.5303 12.536C28.1889 12.536 27.8476 12.6 27.5063 12.728C27.1649 12.8347 26.8556 13.016 26.5783 13.272C26.3223 13.528 26.1089 13.8587 25.9383 14.264C25.7676 14.648 25.6823 15.128 25.6823 15.704V19.224C25.6823 19.8 25.7676 20.2907 25.9383 20.696C26.1089 21.08 26.3223 21.4 26.5783 21.656C26.8556 21.912 27.1649 22.104 27.5063 22.232C27.8476 22.3387 28.1889 22.392 28.5303 22.392C28.8716 22.392 29.2129 22.3387 29.5543 22.232C29.8956 22.104 30.1943 21.912 30.4503 21.656C30.7276 21.4 30.9516 21.08 31.1223 20.696C31.2929 20.2907 31.3783 19.8 31.3783 19.224V15.704ZM58.9963 24.792C58.9963 25.6667 58.8683 26.5733 58.6123 27.512C58.3776 28.4507 57.8976 29.304 57.1723 30.072C56.4683 30.8613 55.4549 31.5227 54.1323 32.056C52.8096 32.6107 51.0709 32.9307 48.9163 33.016C48.6176 33.0373 48.2549 33.0267 47.8283 32.984C47.4229 32.9627 46.9963 32.9093 46.5483 32.824C46.1003 32.76 45.6736 32.664 45.2683 32.536C44.8629 32.4293 44.5323 32.3013 44.2763 32.152C43.7856 31.8747 43.4336 31.4267 43.2203 30.808C43.0283 30.2107 43.0389 29.6347 43.2523 29.08C43.4443 28.568 43.7749 28.1627 44.2443 27.864C44.7136 27.5653 45.2256 27.4587 45.7803 27.544C46.2496 27.608 46.7403 27.672 47.2523 27.736C47.7643 27.8 48.3189 27.832 48.9163 27.832C49.5989 27.832 50.1856 27.7467 50.6763 27.576C51.1669 27.4267 51.5723 27.2133 51.8923 26.936C52.2123 26.6587 52.4469 26.3493 52.5963 26.008C52.7456 25.6667 52.8203 25.3147 52.8203 24.952V24.376C52.2656 24.9307 51.6043 25.368 50.8363 25.688C50.0683 25.9867 49.1936 26.136 48.2123 26.136C47.1456 26.136 46.1429 25.9973 45.2043 25.72C44.2869 25.4427 43.4763 24.9733 42.7723 24.312C42.0683 23.6293 41.5136 22.7333 41.1083 21.624C40.7029 20.4933 40.5003 19.096 40.5003 17.432V16.024C40.5003 14.3387 40.7029 12.9307 41.1083 11.8C41.5136 10.6693 42.0683 9.76267 42.7723 9.08C43.4763 8.39733 44.2976 7.91733 45.2363 7.64C46.1749 7.34133 47.1776 7.192 48.2443 7.192C49.0549 7.192 49.8656 7.34133 50.6763 7.64C51.4869 7.93867 52.2016 8.38667 52.8203 8.984C53.0763 8.38667 53.4709 7.93867 54.0043 7.64C54.5589 7.34133 55.1563 7.192 55.7963 7.192C56.6496 7.192 57.3963 7.45867 58.0363 7.992C58.6763 8.52533 58.9963 9.32533 58.9963 10.392V24.792ZM47.0923 18.008C47.0923 18.5627 47.1776 19.0213 47.3483 19.384C47.5403 19.7467 47.7643 20.0453 48.0203 20.28C48.2976 20.5147 48.5963 20.6853 48.9163 20.792C49.2363 20.8773 49.5349 20.92 49.8123 20.92C50.0896 20.92 50.3776 20.8773 50.6763 20.792C50.9963 20.6853 51.2843 20.5253 51.5403 20.312C51.8176 20.0987 52.0523 19.8213 52.2443 19.48C52.4363 19.1173 52.5429 18.68 52.5643 18.168V15.416C52.5429 14.904 52.4363 14.4773 52.2443 14.136C52.0523 13.7733 51.8176 13.4853 51.5403 13.272C51.2843 13.0587 50.9963 12.9093 50.6763 12.824C50.3776 12.7173 50.0896 12.664 49.8123 12.664C49.5349 12.664 49.2363 12.7173 48.9163 12.824C48.5963 12.9093 48.2976 13.0693 48.0203 13.304C47.7643 13.5387 47.5403 13.848 47.3483 14.232C47.1776 14.5947 47.0923 15.0427 47.0923 15.576V18.008ZM62.3538 10.616C62.3538 9.50667 62.6738 8.696 63.3138 8.184C63.9751 7.672 64.7538 7.416 65.6498 7.416C66.5458 7.416 67.3138 7.672 67.9538 8.184C68.6151 8.696 68.9458 9.50667 68.9458 10.616V27.192H62.3538V10.616ZM62.3218 3.096C62.3218 2.05066 62.6524 1.304 63.3138 0.855999C63.9751 0.386665 64.7538 0.151999 65.6498 0.151999C66.5458 0.151999 67.3244 0.386665 67.9858 0.855999C68.6471 1.304 68.9778 2.05066 68.9778 3.096C68.9778 3.62933 68.8818 4.088 68.6898 4.472C68.5191 4.83467 68.2844 5.13333 67.9858 5.368C67.6871 5.60267 67.3351 5.77333 66.9298 5.88C66.5244 5.98667 66.0978 6.04 65.6498 6.04C65.2018 6.04 64.7751 5.98667 64.3698 5.88C63.9644 5.77333 63.6124 5.60267 63.3138 5.368C63.0151 5.13333 62.7698 4.83467 62.5778 4.472C62.4071 4.088 62.3218 3.62933 62.3218 3.096ZM72.3188 27.192V10.392C72.3188 9.85867 72.4041 9.4 72.5748 9.016C72.7668 8.61067 73.0121 8.28 73.3108 8.024C73.6094 7.74667 73.9508 7.544 74.3348 7.416C74.7188 7.26667 75.1241 7.192 75.5508 7.192C76.1694 7.192 76.7454 7.34133 77.2788 7.64C77.8334 7.93867 78.2494 8.376 78.5268 8.952C79.1454 8.376 79.8601 7.93867 80.6708 7.64C81.5028 7.34133 82.3454 7.192 83.1988 7.192C84.2228 7.192 85.1721 7.33067 86.0468 7.608C86.9428 7.88533 87.7108 8.36533 88.3507 9.048C89.0121 9.70933 89.5348 10.6053 89.9188 11.736C90.3028 12.8667 90.4948 14.2747 90.4948 15.96V27.192H83.9028V15.576C83.9028 15.0427 83.8174 14.5947 83.6468 14.232C83.4974 13.848 83.2948 13.5387 83.0388 13.304C82.8041 13.0693 82.5374 12.9093 82.2388 12.824C81.9401 12.7173 81.6521 12.664 81.3748 12.664C81.0974 12.664 80.8094 12.7173 80.5108 12.824C80.2121 12.9093 79.9348 13.0693 79.6788 13.304C79.4228 13.5387 79.2094 13.848 79.0388 14.232C78.8894 14.5947 78.8148 15.0427 78.8148 15.576V27.192H72.3188Z" fill="#80DDB0"/>
<path d="M2.91375 26.936L2.05171 29.8095L2.09604 29.8228L2.14076 29.8347L2.91375 26.936ZM1.37775 26.04L-0.800108 28.1032L-0.800108 28.1032L1.37775 26.04ZM0.54575 24.472L-2.37577 25.1537L-2.36508 25.1995L-2.35295 25.245L0.54575 24.472ZM0.57775 3.16L-2.13346 1.87574L-2.16163 1.9352L-2.18716 1.99583L0.57775 3.16ZM1.31375 2.136L-0.651043 -0.131067L-0.68991 -0.0973819L-0.727599 -0.0623845L1.31375 2.136ZM2.40175 1.528L3.30515 4.38874L3.37254 4.36746L3.43886 4.34303L2.40175 1.528ZM4.89775 1.528L3.86064 4.34303L3.92696 4.36746L3.99435 4.38874L4.89775 1.528ZM5.95375 2.136L3.9124 4.33438L3.95009 4.36938L3.98896 4.40307L5.95375 2.136ZM6.68975 3.16L3.92485 4.32417L3.95037 4.3848L3.97854 4.44425L6.68975 3.16ZM7.16975 21.432L5.04843 23.5533L5.14466 23.6495L5.2492 23.7367L7.16975 21.432ZM16.1938 21.848L14.782 24.4951L14.8847 24.5498L14.9913 24.5965L16.1938 21.848ZM16.9938 22.488L14.5272 24.1956L14.6034 24.3057L14.6891 24.4086L16.9938 22.488ZM17.4418 23.384L14.5313 24.1116L14.5593 24.2234L14.5957 24.3327L17.4418 23.384ZM17.4418 25.336L14.5783 24.4412L14.5524 24.5241L14.5313 24.6084L17.4418 25.336ZM16.9938 26.264L19.3716 28.0931L19.3716 28.0931L16.9938 26.264ZM16.1938 26.936L17.6055 29.5831L17.6055 29.5831L16.1938 26.936ZM5.31375 24.192C4.50887 24.192 3.98949 24.118 3.68674 24.0373L2.14076 29.8347C3.11801 30.0953 4.19863 30.192 5.31375 30.192V24.192ZM3.77579 24.0625C3.65444 24.0261 3.58874 23.9926 3.56136 23.9767C3.53624 23.962 3.54001 23.9603 3.55561 23.9768L-0.800108 28.1032C0.00911194 28.9574 1.00872 29.4966 2.05171 29.8095L3.77579 24.0625ZM3.55561 23.9768C3.56075 23.9822 3.55104 23.9741 3.5318 23.9379C3.51155 23.8997 3.47803 23.8249 3.44445 23.699L-2.35295 25.245C-2.07737 26.2784 -1.58707 27.2726 -0.800108 28.1032L3.55561 23.9768ZM3.46727 23.7903C3.38605 23.4422 3.32175 22.9067 3.32175 22.136H-2.67825C-2.67825 23.1999 -2.59321 24.2218 -2.37577 25.1537L3.46727 23.7903ZM3.32175 22.136V4.568H-2.67825V22.136H3.32175ZM3.32175 4.568C3.32175 4.35151 3.35641 4.29151 3.34266 4.32417L-2.18716 1.99583C-2.54224 2.83915 -2.67825 3.71782 -2.67825 4.568H3.32175ZM3.28896 4.44426C3.31263 4.39429 3.33151 4.36522 3.34179 4.35091C3.35174 4.33707 3.35638 4.33319 3.3551 4.33438L-0.727599 -0.0623845C-1.3324 0.499213 -1.7947 1.16057 -2.13346 1.87574L3.28896 4.44426ZM3.27854 4.40307C3.28313 4.39909 3.28603 4.39697 3.28728 4.39609C3.28852 4.39521 3.28907 4.39491 3.28922 4.39483C3.28936 4.39475 3.29018 4.39429 3.29213 4.39345C3.2941 4.3926 3.29825 4.39092 3.30515 4.38874L1.49835 -1.33275C0.703928 -1.08188 -0.0202766 -0.677731 -0.651043 -0.131067L3.27854 4.40307ZM3.43886 4.34303C3.51632 4.31449 3.58145 4.304 3.64975 4.304V-1.696C2.86472 -1.696 2.09785 -1.55716 1.36464 -1.28703L3.43886 4.34303ZM3.64975 4.304C3.71805 4.304 3.78318 4.31449 3.86064 4.34303L5.93486 -1.28703C5.20165 -1.55716 4.43478 -1.696 3.64975 -1.696V4.304ZM3.99435 4.38874C3.99993 4.3905 3.9892 4.38758 3.96885 4.37586C3.94813 4.36393 3.92826 4.34911 3.9124 4.33438L7.9951 -0.0623798C7.3568 -0.655089 6.6115 -1.07685 5.80115 -1.33275L3.99435 4.38874ZM3.98896 4.40307C3.97362 4.38977 3.95649 4.37148 3.94171 4.35091C3.92718 4.3307 3.92276 4.31922 3.92485 4.32417L9.45466 1.99582C9.11251 1.18323 8.59988 0.459422 7.91854 -0.131071L3.98896 4.40307ZM3.97854 4.44425C3.96466 4.41495 3.96361 4.40256 3.96661 4.41719C3.96988 4.43321 3.97775 4.48086 3.97775 4.568H9.97775C9.97775 3.67355 9.81573 2.75136 9.40097 1.87574L3.97854 4.44425ZM3.97775 4.568V20.664H9.97775V4.568H3.97775ZM3.97775 20.664C3.97775 21.0008 4.0036 21.4247 4.11532 21.8716C4.22251 22.3003 4.46282 22.9677 5.04843 23.5533L9.29107 19.3107C9.74868 19.7683 9.89299 20.2437 9.93618 20.4164C9.98391 20.6073 9.97775 20.7112 9.97775 20.664H3.97775ZM5.2492 23.7367C5.82501 24.2165 6.43709 24.4019 6.81246 24.4835C7.21431 24.5709 7.59588 24.592 7.90575 24.592V18.592C7.85295 18.592 7.93052 18.5864 8.08704 18.6205C8.21708 18.6487 8.64249 18.7542 9.0903 19.1273L5.2492 23.7367ZM7.90575 24.592H15.0098V18.592H7.90575V24.592ZM15.0098 24.592C15.1272 24.592 15.0056 24.6143 14.782 24.4951L17.6055 19.2009C16.742 18.7404 15.831 18.592 15.0098 18.592V24.592ZM14.9913 24.5965C14.943 24.5753 14.8652 24.5342 14.7757 24.4626C14.6846 24.3898 14.5989 24.2992 14.5272 24.1956L19.4603 20.7804C18.9191 19.9986 18.1923 19.4478 17.3962 19.0995L14.9913 24.5965ZM14.6891 24.4086C14.6473 24.3585 14.6111 24.3028 14.5825 24.2456C14.5542 24.189 14.5389 24.1419 14.5313 24.1116L20.3522 22.6564C20.1636 21.9019 19.817 21.1897 19.2984 20.5674L14.6891 24.4086ZM14.5957 24.3327C14.5986 24.3415 14.6004 24.3478 14.6013 24.3516C14.6018 24.3536 14.6021 24.355 14.6023 24.3559C14.6025 24.3568 14.6026 24.3572 14.6026 24.3572C14.6026 24.3572 14.6026 24.3571 14.6025 24.3569C14.6025 24.3567 14.6025 24.3565 14.6024 24.3561C14.6023 24.3554 14.6022 24.3544 14.6021 24.3531C14.6019 24.3506 14.6018 24.3474 14.6018 24.344H20.6018C20.6018 23.6845 20.4909 23.0446 20.2878 22.4353L14.5957 24.3327ZM14.6018 24.344C14.6018 24.3272 14.605 24.3559 14.5783 24.4412L20.3052 26.2308C20.4919 25.6335 20.6018 25.0008 20.6018 24.344H14.6018ZM14.5313 24.6084C14.5372 24.5851 14.5475 24.5541 14.5641 24.5198C14.5807 24.4854 14.5992 24.4565 14.6159 24.4349L19.3716 28.0931C19.8377 27.4872 20.1675 26.8025 20.3522 26.0636L14.5313 24.6084ZM14.6159 24.4349C14.6407 24.4026 14.6708 24.3709 14.7042 24.3429C14.7373 24.3151 14.7653 24.2979 14.782 24.2889L17.6055 29.5831C18.288 29.2191 18.8885 28.7212 19.3716 28.0931L14.6159 24.4349ZM14.782 24.2889C15.0056 24.1697 15.1272 24.192 15.0098 24.192V30.192C15.831 30.192 16.742 30.0436 17.6055 29.5831L14.782 24.2889ZM15.0098 24.192H5.31375V30.192H15.0098V24.192ZM22.2583 8.984L24.0764 11.3703L24.0764 11.3703L22.2583 8.984ZM25.2343 7.544L24.5066 4.63354L24.4932 4.63696L25.2343 7.544ZM31.7623 7.544L31.0212 10.4511L31.0346 10.4544L31.7623 7.544ZM36.9463 11.704L34.2529 13.0253L34.2629 13.0456L34.2731 13.0658L36.9463 11.704ZM36.9463 23.224L34.2731 21.8622L34.2629 21.8824L34.2529 21.9027L36.9463 23.224ZM34.7703 25.944L36.5884 28.3303L36.5884 28.3303L34.7703 25.944ZM31.7623 27.384L31.0346 24.4735L31.0212 24.477L31.7623 27.384ZM25.2663 27.384L24.5252 30.2911L24.5386 30.2944L25.2663 27.384ZM22.2903 25.944L24.1084 23.5577L22.2903 25.944ZM20.0823 23.224L17.3889 24.5453L17.3989 24.5656L17.4091 24.5858L20.0823 23.224ZM31.1223 14.264L28.3573 15.4282L28.3688 15.4554L28.3808 15.4824L31.1223 14.264ZM30.4503 13.272L28.3289 15.3933L28.3713 15.4357L28.4154 15.4764L30.4503 13.272ZM29.5543 12.728L28.5009 15.537L28.5794 15.5664L28.6594 15.5914L29.5543 12.728ZM27.5063 12.728L28.4011 15.5914L28.4811 15.5664L28.5596 15.537L27.5063 12.728ZM26.5783 13.272L24.5434 11.0676L24.4993 11.1083L24.4569 11.1507L26.5783 13.272ZM25.9383 14.264L28.6797 15.4824L28.6917 15.4554L28.7032 15.4282L25.9383 14.264ZM25.9383 20.696L23.1733 21.8602L23.1848 21.8874L23.1968 21.9144L25.9383 20.696ZM26.5783 21.656L24.4569 23.7773L24.4993 23.8197L24.5434 23.8604L26.5783 21.656ZM27.5063 22.232L26.4529 25.041L26.5314 25.0704L26.6114 25.0954L27.5063 22.232ZM29.5543 22.232L30.4491 25.0954L30.5291 25.0704L30.6076 25.041L29.5543 22.232ZM30.4503 21.656L28.4154 19.4516L28.3713 19.4923L28.3289 19.5347L30.4503 21.656ZM31.1223 20.696L33.8637 21.9144L33.8757 21.8874L33.8872 21.8602L31.1223 20.696ZM22.2503 15.992C22.2503 14.561 22.4833 13.6211 22.7756 13.0253L17.3889 10.3827C16.5718 12.0482 16.2503 13.967 16.2503 15.992H22.2503ZM22.7756 13.0253C23.1496 12.2628 23.5926 11.7389 24.0764 11.3703L20.4401 6.5977C19.1319 7.59448 18.1242 8.88382 17.3889 10.3827L22.7756 13.0253ZM24.0764 11.3703C24.653 10.931 25.2789 10.6285 25.9753 10.451L24.4932 4.63696C23.0136 5.01412 21.6555 5.67171 20.4401 6.5977L24.0764 11.3703ZM25.9619 10.4544C26.8453 10.2336 27.6997 10.128 28.5303 10.128V4.128C27.1848 4.128 25.8418 4.29978 24.5066 4.63357L25.9619 10.4544ZM28.5303 10.128C29.3342 10.128 30.1627 10.2322 31.0212 10.451L32.5033 4.63696C31.1858 4.30114 29.8596 4.128 28.5303 4.128V10.128ZM31.0346 10.4544C31.7548 10.6345 32.3853 10.9384 32.9521 11.3703L36.5884 6.5977C35.3632 5.66426 33.9884 5.0082 32.4899 4.63357L31.0346 10.4544ZM32.9521 11.3703C33.4359 11.7389 33.8789 12.2628 34.2529 13.0253L39.6396 10.3827C38.9043 8.88382 37.8966 7.59448 36.5884 6.5977L32.9521 11.3703ZM34.2731 13.0658C34.5709 13.6503 34.8103 14.5746 34.8103 15.992H40.8103C40.8103 13.9534 40.4736 12.019 39.6194 10.3422L34.2731 13.0658ZM34.8103 15.992V18.936H40.8103V15.992H34.8103ZM34.8103 18.936C34.8103 20.3534 34.5709 21.2777 34.2731 21.8622L39.6194 24.5858C40.4736 22.909 40.8103 20.9746 40.8103 18.936H34.8103ZM34.2529 21.9027C33.8789 22.6651 33.4359 23.1891 32.9521 23.5577L36.5884 28.3303C37.8966 27.3335 38.9043 26.0442 39.6396 24.5453L34.2529 21.9027ZM32.9521 23.5577C32.3853 23.9896 31.7548 24.2935 31.0346 24.4736L32.4899 30.2944C33.9884 29.9198 35.3632 29.2637 36.5884 28.3303L32.9521 23.5577ZM31.0212 24.477C30.1627 24.6958 29.3342 24.8 28.5303 24.8V30.8C29.8596 30.8 31.1858 30.6269 32.5033 30.291L31.0212 24.477ZM28.5303 24.8C27.7258 24.8 26.8822 24.6957 25.9939 24.4736L24.5386 30.2944C25.8689 30.627 27.2014 30.8 28.5303 30.8V24.8ZM26.0073 24.477C25.3109 24.2995 24.685 23.997 24.1084 23.5577L20.4721 28.3303C21.6875 29.2563 23.0456 29.9139 24.5252 30.291L26.0073 24.477ZM24.1084 23.5577C23.6136 23.1808 23.1529 22.6426 22.7554 21.8622L17.4091 24.5858C18.1636 26.0667 19.1749 27.3419 20.4721 28.3303L24.1084 23.5577ZM22.7756 21.9027C22.4833 21.3069 22.2503 20.367 22.2503 18.936H16.2503C16.2503 20.961 16.5718 22.8798 17.3889 24.5453L22.7756 21.9027ZM22.2503 18.936V15.992H16.2503V18.936H22.2503ZM34.3783 15.704C34.3783 14.8545 34.2556 13.9274 33.8637 13.0456L28.3808 15.4824C28.3534 15.4207 28.3538 15.3988 28.3606 15.4371C28.3675 15.476 28.3783 15.5614 28.3783 15.704H34.3783ZM33.8872 13.0998C33.5775 12.3644 33.1251 11.6584 32.4851 11.0676L28.4154 15.4764C28.3754 15.4395 28.3521 15.4088 28.3425 15.3945C28.3335 15.3813 28.3409 15.3891 28.3573 15.4282L33.8872 13.0998ZM32.5716 11.1507C31.9771 10.5562 31.2591 10.1177 30.4491 9.86456L28.6594 15.5914C28.6036 15.574 28.5406 15.5468 28.4773 15.5084C28.4142 15.47 28.3645 15.4289 28.3289 15.3933L32.5716 11.1507ZM30.6076 9.91901C29.9525 9.67335 29.2552 9.536 28.5303 9.536V15.536C28.5122 15.536 28.4978 15.5342 28.4894 15.5326C28.4813 15.5311 28.4847 15.5309 28.5009 15.537L30.6076 9.91901ZM28.5303 9.536C27.8053 9.536 27.108 9.67335 26.4529 9.91901L28.5596 15.537C28.5758 15.5309 28.5792 15.5311 28.5711 15.5326C28.5627 15.5342 28.5483 15.536 28.5303 15.536V9.536ZM26.6114 9.86456C25.8226 10.1111 25.1287 10.5273 24.5434 11.0676L28.6131 15.4764C28.6018 15.4869 28.5761 15.5083 28.5354 15.5321C28.4943 15.5562 28.4482 15.5767 28.4011 15.5914L26.6114 9.86456ZM24.4569 11.1507C23.8744 11.7332 23.4631 12.4116 23.1733 13.0998L28.7032 15.4282C28.7285 15.3679 28.7454 15.3411 28.7471 15.3384C28.7484 15.3364 28.7343 15.3586 28.6996 15.3933L24.4569 11.1507ZM23.1968 13.0456C22.8049 13.9274 22.6823 14.8545 22.6823 15.704H28.6823C28.6823 15.5614 28.693 15.476 28.6999 15.4371C28.7067 15.3988 28.7071 15.4207 28.6797 15.4824L23.1968 13.0456ZM22.6823 15.704V19.224H28.6823V15.704H22.6823ZM22.6823 19.224C22.6823 20.082 22.8075 20.9914 23.1733 21.8602L28.7032 19.5318C28.7276 19.59 28.6823 19.518 28.6823 19.224H22.6823ZM23.1968 21.9144C23.4934 22.5816 23.9023 23.2227 24.4569 23.7773L28.6996 19.5347C28.7196 19.5547 28.7263 19.5657 28.7224 19.5599C28.7182 19.5536 28.7023 19.5285 28.6797 19.4776L23.1968 21.9144ZM24.5434 23.8604C25.0955 24.37 25.7355 24.772 26.4529 25.041L28.5596 19.423C28.5731 19.4281 28.5875 19.4351 28.6003 19.4431C28.613 19.4509 28.6172 19.4554 28.6131 19.4516L24.5434 23.8604ZM26.6114 25.0954C27.2285 25.2883 27.8712 25.392 28.5303 25.392V19.392C28.5066 19.392 28.4666 19.3891 28.4011 19.3686L26.6114 25.0954ZM28.5303 25.392C29.1893 25.392 29.832 25.2883 30.4491 25.0954L28.6594 19.3686C28.5939 19.3891 28.5539 19.392 28.5303 19.392V25.392ZM30.6076 25.041C31.3471 24.7637 32.0106 24.3383 32.5716 23.7773L28.3289 19.5347C28.3494 19.5142 28.3776 19.4906 28.412 19.4685C28.4463 19.4464 28.4777 19.4317 28.5009 19.423L30.6076 25.041ZM32.4851 23.8604C33.095 23.2974 33.5459 22.6293 33.8637 21.9144L28.3808 19.4776C28.3679 19.5067 28.3621 19.5128 28.3686 19.5036C28.3755 19.4937 28.3908 19.4743 28.4154 19.4516L32.4851 23.8604ZM33.8872 21.8602C34.253 20.9914 34.3783 20.082 34.3783 19.224H28.3783C28.3783 19.518 28.3329 19.59 28.3573 19.5318L33.8872 21.8602ZM34.3783 19.224V15.704H28.3783V19.224H34.3783ZM58.6123 27.512L55.718 26.7226L55.7096 26.7534L55.7018 26.7844L58.6123 27.512ZM57.1723 30.072L54.9912 28.0121L54.9618 28.0432L54.9334 28.0752L57.1723 30.072ZM54.1323 32.056L53.0103 29.2737L52.9912 29.2814L52.9721 29.2894L54.1323 32.056ZM48.9163 33.016L48.7975 30.0184L48.75 30.0202L48.7025 30.0236L48.9163 33.016ZM47.8283 32.984L48.1268 29.9989L48.0565 29.9919L47.9859 29.9881L47.8283 32.984ZM46.5483 32.824L47.1096 29.877L47.0413 29.864L46.9725 29.8542L46.5483 32.824ZM45.2683 32.536L46.1716 29.6753L46.1022 29.6533L46.0317 29.6348L45.2683 32.536ZM44.2763 32.152L45.7879 29.5607L45.7702 29.5504L45.7524 29.5403L44.2763 32.152ZM43.2203 30.808L40.3642 31.726L40.3738 31.7561L40.3841 31.786L43.2203 30.808ZM43.2523 29.08L46.0523 30.1569L46.0568 30.1452L46.0612 30.1334L43.2523 29.08ZM45.7803 27.544L45.3241 30.5091L45.3495 30.513L45.3749 30.5165L45.7803 27.544ZM50.6763 27.576L49.8028 24.706L49.7464 24.7231L49.6907 24.7425L50.6763 27.576ZM51.8923 26.936L53.857 29.2031L53.857 29.2031L51.8923 26.936ZM52.8203 24.376H55.8203V17.1334L50.6989 22.2547L52.8203 24.376ZM50.8363 25.688L51.9236 28.484L51.957 28.471L51.9901 28.4572L50.8363 25.688ZM45.2043 25.72L44.3361 28.5916L44.3451 28.5944L44.3542 28.5971L45.2043 25.72ZM42.7723 24.312L40.6838 26.4657L40.7009 26.4823L40.7182 26.4985L42.7723 24.312ZM41.1083 21.624L38.2842 22.6364L38.2873 22.645L38.2905 22.6536L41.1083 21.624ZM41.1083 11.8L38.2842 10.7876L38.2842 10.7876L41.1083 11.8ZM42.7723 9.08L40.6838 6.9263L40.6838 6.9263L42.7723 9.08ZM45.2363 7.64L46.0863 10.5171L46.1162 10.5082L46.1459 10.4988L45.2363 7.64ZM50.6763 7.64L49.6391 10.455L49.6391 10.455L50.6763 7.64ZM52.8203 8.984L50.7365 11.1422L53.8647 14.1626L55.5777 10.1658L52.8203 8.984ZM54.0043 7.64L52.582 4.99859L52.5601 5.01035L52.5384 5.02248L54.0043 7.64ZM58.0363 7.992L59.9568 5.68734L59.9568 5.68733L58.0363 7.992ZM47.3483 19.384L44.6338 20.6614L44.6639 20.7253L44.6969 20.7877L47.3483 19.384ZM48.0203 20.28L45.9931 22.4915L46.037 22.5317L46.0824 22.5702L48.0203 20.28ZM48.9163 20.792L47.9676 23.638L48.0546 23.6671L48.1433 23.6907L48.9163 20.792ZM50.6763 20.792L51.5004 23.6766L51.5631 23.6587L51.6249 23.638L50.6763 20.792ZM51.5403 20.312L49.7111 17.9341L49.6647 17.9698L49.6197 18.0073L51.5403 20.312ZM52.2443 19.48L54.859 20.9508L54.8777 20.9175L54.8956 20.8837L52.2443 19.48ZM52.5643 18.168L55.5617 18.2929L55.5643 18.2305V18.168H52.5643ZM52.5643 15.416H55.5643V15.3535L55.5617 15.2911L52.5643 15.416ZM52.2443 14.136L49.5929 15.5397L49.6108 15.5735L49.6295 15.6068L52.2443 14.136ZM51.5403 13.272L49.6197 15.5767L49.6647 15.6142L49.7111 15.6499L51.5403 13.272ZM50.6763 12.824L49.6672 15.6492L49.7837 15.6908L49.9033 15.7227L50.6763 12.824ZM48.9163 12.824L49.6892 15.7227L49.7779 15.6991L49.8649 15.67L48.9163 12.824ZM48.0203 13.304L46.0824 11.0138L46.037 11.0523L45.9931 11.0925L48.0203 13.304ZM47.3483 14.232L44.665 12.8904L44.649 12.9223L44.6338 12.9546L47.3483 14.232ZM55.9963 24.792C55.9963 25.372 55.9116 26.0128 55.718 26.7226L61.5065 28.3014C61.8249 27.1339 61.9963 25.9613 61.9963 24.792H55.9963ZM55.7018 26.7844C55.6032 27.1787 55.3965 27.583 54.9912 28.0121L59.3533 32.1319C60.3987 31.025 61.1519 29.7226 61.5227 28.2396L55.7018 26.7844ZM54.9334 28.0752C54.6241 28.4219 54.0471 28.8556 53.0103 29.2737L55.2542 34.8383C56.8628 34.1897 58.3124 33.3007 59.4111 32.0688L54.9334 28.0752ZM52.9721 29.2894C52.1024 29.6541 50.7563 29.9408 48.7975 30.0184L49.035 36.0137C51.3855 35.9206 53.5168 35.5672 55.2924 34.8226L52.9721 29.2894ZM48.7025 30.0236C48.63 30.0288 48.4494 30.0312 48.1268 29.9989L47.5297 35.9691C48.0604 36.0222 48.6051 36.0459 49.13 36.0084L48.7025 30.0236ZM47.9859 29.9881C47.7315 29.9748 47.4403 29.94 47.1096 29.877L45.9869 35.771C46.5522 35.8787 47.1144 35.9506 47.6706 35.9799L47.9859 29.9881ZM46.9725 29.8542C46.6766 29.8119 46.4108 29.7508 46.1716 29.6753L44.3649 35.3967C44.9363 35.5772 45.5239 35.7081 46.124 35.7938L46.9725 29.8542ZM46.0317 29.6348C45.9185 29.605 45.8433 29.5794 45.7992 29.5623C45.7542 29.5449 45.7551 29.5416 45.7879 29.5607L42.7646 34.7433C43.3293 35.0727 43.9362 35.2876 44.5048 35.4372L46.0317 29.6348ZM45.7524 29.5403C45.8518 29.5965 45.94 29.674 46.0032 29.7545C46.0622 29.8296 46.0699 29.8692 46.0564 29.83L40.3841 31.786C40.7954 32.9785 41.5707 34.0688 42.8001 34.7637L45.7524 29.5403ZM46.0763 29.89C46.0724 29.8778 46.085 29.9132 46.0837 29.9835C46.0824 30.0561 46.0671 30.1185 46.0523 30.1569L40.4522 28.0031C39.9787 29.2342 39.9752 30.516 40.3642 31.726L46.0763 29.89ZM46.0612 30.1334C46.0479 30.1689 46.019 30.2269 45.9688 30.2884C45.9191 30.3494 45.8733 30.3832 45.8549 30.395L42.6336 25.333C41.6254 25.9746 40.8681 26.8938 40.4433 28.0266L46.0612 30.1334ZM45.8549 30.395C45.8035 30.4277 45.7129 30.4718 45.5921 30.4969C45.4717 30.522 45.3755 30.517 45.3241 30.5091L46.2364 24.5789C44.9699 24.384 43.7224 24.6401 42.6336 25.333L45.8549 30.395ZM45.3749 30.5165C45.8562 30.5821 46.358 30.6476 46.8801 30.7128L47.6244 24.7592C47.1225 24.6964 46.6429 24.6339 46.1856 24.5715L45.3749 30.5165ZM46.8801 30.7128C47.533 30.7944 48.2134 30.832 48.9163 30.832V24.832C48.4244 24.832 47.9955 24.8056 47.6244 24.7592L46.8801 30.7128ZM48.9163 30.832C49.8351 30.832 50.7724 30.7189 51.6618 30.4095L49.6907 24.7425C49.5988 24.7745 49.3627 24.832 48.9163 24.832V30.832ZM51.5497 30.446C52.3592 30.1997 53.1598 29.8073 53.857 29.2031L49.9275 24.6689C49.9847 24.6193 49.9746 24.6537 49.8028 24.706L51.5497 30.446ZM53.857 29.2031C54.468 28.6736 54.9936 28.013 55.3447 27.2105L49.8478 24.8055C49.872 24.7503 49.8984 24.7089 49.9182 24.6828C49.9372 24.6577 49.9444 24.6543 49.9275 24.6689L53.857 29.2031ZM55.3447 27.2105C55.6553 26.5006 55.8203 25.74 55.8203 24.952H49.8203C49.8203 24.9258 49.8231 24.8958 49.8295 24.8655C49.8359 24.8354 49.8437 24.8148 49.8478 24.8055L55.3447 27.2105ZM55.8203 24.952V24.376H49.8203V24.952H55.8203ZM50.6989 22.2547C50.4379 22.5157 50.1109 22.7402 49.6824 22.9188L51.9901 28.4572C53.0976 27.9958 54.0933 27.3456 54.9416 26.4973L50.6989 22.2547ZM49.7489 22.892C49.3869 23.0328 48.891 23.136 48.2123 23.136V29.136C49.4961 29.136 50.7496 28.9406 51.9236 28.484L49.7489 22.892ZM48.2123 23.136C47.4077 23.136 46.6934 23.0318 46.0543 22.8429L44.3542 28.5971C45.5924 28.9629 46.8835 29.136 48.2123 29.136V23.136ZM46.0724 22.8484C45.6015 22.706 45.1959 22.4726 44.8263 22.1255L40.7182 26.4985C41.7566 27.474 42.9723 28.1793 44.3361 28.5916L46.0724 22.8484ZM44.8607 22.1583C44.5411 21.8484 44.2074 21.3645 43.926 20.5944L38.2905 22.6536C38.8197 24.1022 39.5954 25.4102 40.6838 26.4657L44.8607 22.1583ZM43.9323 20.6116C43.6787 19.9044 43.5003 18.8741 43.5003 17.432H37.5003C37.5003 19.3179 37.7271 21.0823 38.2842 22.6364L43.9323 20.6116ZM43.5003 17.432V16.024H37.5003V17.432H43.5003ZM43.5003 16.024C43.5003 14.5555 43.68 13.5162 43.9323 12.8124L38.2842 10.7876C37.7259 12.3452 37.5003 14.1219 37.5003 16.024H43.5003ZM43.9323 12.8124C44.217 12.0181 44.5516 11.5334 44.8607 11.2337L40.6838 6.9263C39.5849 7.9919 38.8101 9.32061 38.2842 10.7876L43.9323 12.8124ZM44.8607 11.2337C45.2171 10.8881 45.6138 10.6567 46.0863 10.5171L44.3862 4.76295C42.9814 5.178 41.7354 5.90661 40.6838 6.9263L44.8607 11.2337ZM46.1459 10.4988C46.767 10.3011 47.4607 10.192 48.2443 10.192V4.192C46.8944 4.192 45.5828 4.38154 44.3266 4.78122L46.1459 10.4988ZM48.2443 10.192C48.6783 10.192 49.1386 10.2706 49.6391 10.455L51.7134 4.82497C50.5926 4.41205 49.4315 4.192 48.2443 4.192V10.192ZM49.6391 10.455C50.061 10.6104 50.4188 10.8354 50.7365 11.1422L54.904 6.8258C53.9844 5.93789 52.9129 5.26689 51.7134 4.82497L49.6391 10.455ZM55.5777 10.1658C55.5915 10.1336 55.5899 10.1483 55.5593 10.1831C55.5451 10.1992 55.5286 10.2151 55.5109 10.2294C55.4933 10.2435 55.4787 10.2527 55.4701 10.2575L52.5384 5.02248C51.3903 5.66544 50.5617 6.63807 50.0628 7.80224L55.5777 10.1658ZM55.4266 10.2814C55.5369 10.222 55.6445 10.192 55.7963 10.192V4.192C54.668 4.192 53.5809 4.46066 52.582 4.99859L55.4266 10.2814ZM55.7963 10.192C55.9664 10.192 56.029 10.2244 56.1157 10.2967L59.9568 5.68733C58.7635 4.69295 57.3328 4.192 55.7963 4.192V10.192ZM56.1157 10.2967C56.0846 10.2707 56.0512 10.2359 56.0216 10.1949C55.9924 10.1543 55.977 10.1215 55.9708 10.1062C55.9597 10.0785 55.9963 10.1525 55.9963 10.392H61.9963C61.9963 8.70453 61.4639 6.94323 59.9568 5.68734L56.1157 10.2967ZM55.9963 10.392V24.792H61.9963V10.392H55.9963ZM44.0923 18.008C44.0923 18.845 44.2174 19.7765 44.6338 20.6614L50.0627 18.1066C50.1026 18.1914 50.1089 18.2368 50.1056 18.2193C50.1022 18.201 50.0923 18.1346 50.0923 18.008H44.0923ZM44.6969 20.7877C45.0208 21.3996 45.4432 21.9874 45.9931 22.4915L50.0474 18.0685C50.0853 18.1033 50.0597 18.0938 49.9996 17.9803L44.6969 20.7877ZM46.0824 22.5702C46.6285 23.0322 47.2584 23.4017 47.9676 23.638L49.8649 17.946C49.896 17.9563 49.9219 17.9685 49.9407 17.9793C49.959 17.9898 49.9646 17.9954 49.9581 17.9898L46.0824 22.5702ZM48.1433 23.6907C48.6682 23.8307 49.2292 23.92 49.8123 23.92V17.92C49.8406 17.92 49.8043 17.924 49.6892 17.8933L48.1433 23.6907ZM49.8123 23.92C50.3994 23.92 50.9654 23.8294 51.5004 23.6766L49.8521 17.9074C49.7898 17.9252 49.7797 17.92 49.8123 17.92V23.92ZM51.6249 23.638C52.2954 23.4146 52.9139 23.0724 53.4608 22.6167L49.6197 18.0073C49.6343 17.9952 49.6533 17.9818 49.6753 17.9695C49.6973 17.9573 49.7158 17.9499 49.7276 17.946L51.6249 23.638ZM53.3694 22.6899C54.0031 22.2024 54.4925 21.6023 54.859 20.9508L49.6295 18.0092C49.6195 18.027 49.6196 18.0233 49.6341 18.0062C49.6491 17.9884 49.6746 17.9622 49.7111 17.9341L53.3694 22.6899ZM54.8956 20.8837C55.3422 20.0401 55.5262 19.1433 55.5617 18.2929L49.5669 18.0431C49.5633 18.1281 49.5543 18.1668 49.5537 18.1691C49.5535 18.1699 49.5623 18.1342 49.5929 18.0763L54.8956 20.8837ZM55.5643 18.168V15.416H49.5643V18.168H55.5643ZM55.5617 15.2911C55.5265 14.447 55.3431 13.5259 54.859 12.6652L49.6295 15.6068C49.5793 15.5174 49.5616 15.4547 49.5578 15.4396C49.5545 15.4263 49.5633 15.4558 49.5669 15.5409L55.5617 15.2911ZM54.8956 12.7323C54.5369 12.0548 54.0413 11.411 53.3694 10.8941L49.7111 15.6499C49.6552 15.6069 49.6186 15.5676 49.5985 15.543C49.5793 15.5194 49.5796 15.5145 49.5929 15.5397L54.8956 12.7323ZM53.4608 10.9673C52.8721 10.4768 52.1931 10.1236 51.4492 9.92529L49.9033 15.7227C49.8571 15.7104 49.8048 15.691 49.7513 15.6633C49.6978 15.6355 49.6536 15.6049 49.6197 15.5767L53.4608 10.9673ZM51.6853 9.99877C51.1086 9.79282 50.479 9.664 49.8123 9.664V15.664C49.7002 15.664 49.6466 15.6418 49.6672 15.6492L51.6853 9.99877ZM49.8123 9.664C49.1514 9.664 48.5296 9.7906 47.9676 9.97795L49.8649 15.67C49.9023 15.6576 49.9159 15.6558 49.9076 15.6573C49.899 15.6588 49.866 15.664 49.8123 15.664V9.664ZM48.1433 9.9253C47.3546 10.1356 46.6651 10.5208 46.0824 11.0138L49.9581 15.5942C49.9474 15.6032 49.9181 15.6261 49.8689 15.6524C49.8189 15.6792 49.758 15.7044 49.6892 15.7227L48.1433 9.9253ZM45.9931 11.0925C45.4117 11.6254 44.9834 12.2535 44.665 12.8904L50.0315 15.5736C50.0634 15.51 50.0847 15.479 50.0901 15.4715C50.0951 15.4646 50.0825 15.4833 50.0474 15.5155L45.9931 11.0925ZM44.6338 12.9546C44.2237 13.8261 44.0923 14.7402 44.0923 15.576H50.0923C50.0923 15.4669 50.1012 15.4123 50.1033 15.4013C50.1051 15.3915 50.0982 15.434 50.0627 15.5094L44.6338 12.9546ZM44.0923 15.576V18.008H50.0923V15.576H44.0923ZM63.3138 8.184L61.4772 5.81183L61.4583 5.82646L61.4397 5.84139L63.3138 8.184ZM67.9538 8.184L66.0797 10.5266L66.0983 10.5415L66.1172 10.5562L67.9538 8.184ZM68.9458 27.192V30.192H71.9458V27.192H68.9458ZM62.3538 27.192H59.3538V30.192H62.3538V27.192ZM63.3138 0.855999L64.9963 3.33976L65.0233 3.32143L65.05 3.30252L63.3138 0.855999ZM67.9858 0.855999L66.2495 3.30252L66.2762 3.32143L66.3032 3.33976L67.9858 0.855999ZM68.6898 4.472L66.0065 3.13036L65.9905 3.1623L65.9753 3.19461L68.6898 4.472ZM67.9858 5.368L66.1323 3.00904L66.1323 3.00905L67.9858 5.368ZM66.9298 5.88L67.6932 8.78122L67.6932 8.78122L66.9298 5.88ZM63.3138 5.368L65.1672 3.00905L65.1672 3.00904L63.3138 5.368ZM62.5778 4.472L59.8363 5.69041L59.8782 5.78458L59.9264 5.87566L62.5778 4.472ZM65.3538 10.616C65.3538 10.3399 65.3947 10.2508 65.3842 10.2775C65.3777 10.2939 65.3593 10.3343 65.3217 10.3862C65.2834 10.4389 65.237 10.4873 65.1878 10.5266L61.4397 5.84139C59.8572 7.10736 59.3538 8.93884 59.3538 10.616H65.3538ZM65.1503 10.5562C65.2473 10.4811 65.368 10.416 65.6498 10.416V4.416C64.1395 4.416 62.7029 4.86291 61.4772 5.81183L65.1503 10.5562ZM65.6498 10.416C65.9322 10.416 66.0222 10.4806 66.0797 10.5266L69.8278 5.8414C68.6053 4.8634 67.1593 4.416 65.6498 4.416V10.416ZM66.1172 10.5562C66.0725 10.5215 66.027 10.4763 65.9878 10.424C65.949 10.3723 65.9285 10.3299 65.9199 10.3091C65.9051 10.2726 65.9458 10.3502 65.9458 10.616H71.9458C71.9458 8.90581 71.4104 7.06611 69.7903 5.81183L66.1172 10.5562ZM65.9458 10.616V27.192H71.9458V10.616H65.9458ZM68.9458 24.192H62.3538V30.192H68.9458V24.192ZM65.3538 27.192V10.616H59.3538V27.192H65.3538ZM65.3218 3.096C65.3218 2.87903 65.3573 2.86639 65.3128 2.96678C65.2893 3.01984 65.2494 3.09034 65.1878 3.1645C65.1259 3.23902 65.0584 3.29771 64.9963 3.33976L61.6312 -1.62776C59.8985 -0.45397 59.3218 1.39714 59.3218 3.096H65.3218ZM65.05 3.30252C65.1509 3.23087 65.3075 3.152 65.6498 3.152V-2.848C64.2 -2.848 62.7992 -2.45754 61.5775 -1.59052L65.05 3.30252ZM65.6498 3.152C65.992 3.152 66.1486 3.23087 66.2495 3.30252L69.722 -1.59052C68.5003 -2.45754 67.0995 -2.848 65.6498 -2.848V3.152ZM66.3032 3.33976C66.2411 3.29771 66.1736 3.23903 66.1117 3.1645C66.0501 3.09034 66.0102 3.01984 65.9867 2.96678C65.9422 2.86639 65.9778 2.87903 65.9778 3.096H71.9778C71.9778 1.39714 71.401 -0.45397 69.6683 -1.62776L66.3032 3.33976ZM65.9778 3.096C65.9778 3.18392 65.9697 3.22368 65.9694 3.22541C65.9693 3.22589 65.9712 3.21677 65.977 3.19978C65.9828 3.18266 65.9922 3.1589 66.0065 3.13036L71.373 5.81364C71.8176 4.92441 71.9778 3.98462 71.9778 3.096H65.9778ZM65.9753 3.19461C65.981 3.18239 65.9968 3.15273 66.0268 3.11453C66.0572 3.07582 66.0936 3.03946 66.1323 3.00904L69.8392 7.72695C70.5255 7.18776 71.0459 6.51069 71.4042 5.74939L65.9753 3.19461ZM66.1323 3.00905C66.1568 2.9898 66.1775 2.9781 66.1889 2.97256C66.1997 2.96735 66.1943 2.97139 66.1663 2.97878L67.6932 8.78122C68.4539 8.58105 69.1862 8.24006 69.8392 7.72695L66.1323 3.00905ZM66.1663 2.97878C66.0267 3.01552 65.8577 3.04 65.6498 3.04V9.04C66.3378 9.04 67.0222 8.95781 67.6932 8.78122L66.1663 2.97878ZM65.6498 3.04C65.4418 3.04 65.2728 3.01552 65.1332 2.97878L63.6063 8.78122C64.2773 8.95781 64.9617 9.04 65.6498 9.04V3.04ZM65.1332 2.97878C65.1052 2.97139 65.0998 2.96735 65.1106 2.97256C65.122 2.9781 65.1427 2.9898 65.1672 3.00905L61.4603 7.72695C62.1133 8.24006 62.8456 8.58105 63.6063 8.78122L65.1332 2.97878ZM65.1672 3.00904C65.1918 3.02836 65.2111 3.04811 65.2239 3.06378C65.2364 3.07894 65.2369 3.08295 65.2291 3.06834L59.9264 5.87566C60.2987 6.57886 60.806 7.21284 61.4603 7.72695L65.1672 3.00904ZM65.3192 3.25358C65.3583 3.34162 65.3218 3.31858 65.3218 3.096H59.3218C59.3218 3.94008 59.4559 4.83438 59.8363 5.69041L65.3192 3.25358ZM72.3188 27.192H69.3188V30.192H72.3188V27.192ZM72.5748 9.016L69.8635 7.73174L69.848 7.76448L69.8333 7.79758L72.5748 9.016ZM73.3108 8.024L75.2631 10.3018L75.3084 10.263L75.3521 10.2224L73.3108 8.024ZM74.3348 7.416L75.2834 10.262L75.3534 10.2387L75.4221 10.212L74.3348 7.416ZM77.2788 7.64L75.8129 10.2575L75.8346 10.2696L75.8565 10.2814L77.2788 7.64ZM78.5268 8.952L75.8237 10.2534L77.5904 13.9227L80.571 11.1477L78.5268 8.952ZM80.6708 7.64L79.6572 4.81642L79.6454 4.82064L79.6336 4.82497L80.6708 7.64ZM86.0468 7.608L85.14 10.4677L85.1499 10.4708L85.1597 10.4739L86.0468 7.608ZM88.3507 9.048L86.1621 11.0998L86.1952 11.1351L86.2294 11.1693L88.3507 9.048ZM90.4948 27.192V30.192H93.4948V27.192H90.4948ZM83.9028 27.192H80.9028V30.192H83.9028V27.192ZM83.6468 14.232L80.8507 15.3193L80.8882 15.4158L80.9323 15.5094L83.6468 14.232ZM83.0388 13.304L80.9174 15.4253L80.9635 15.4714L81.0116 15.5155L83.0388 13.304ZM82.2388 12.824L81.2297 15.6492L81.3212 15.6819L81.4146 15.7086L82.2388 12.824ZM80.5108 12.824L81.3349 15.7086L81.4283 15.6819L81.5198 15.6492L80.5108 12.824ZM79.6788 13.304L77.6516 11.0925L77.6516 11.0925L79.6788 13.304ZM79.0388 14.232L76.2973 13.0136L76.2805 13.0514L76.2647 13.0897L79.0388 14.232ZM78.8148 27.192V30.192H81.8148V27.192H78.8148ZM75.3188 27.192V10.392H69.3188V27.192H75.3188ZM75.3188 10.392C75.3188 10.1694 75.3553 10.1464 75.3162 10.2344L69.8333 7.79758C69.4529 8.65362 69.3188 9.54792 69.3188 10.392H75.3188ZM75.286 10.3003C75.3054 10.2592 75.3161 10.2461 75.312 10.2515C75.3101 10.2542 75.3051 10.2606 75.2966 10.2698C75.288 10.279 75.2769 10.29 75.2631 10.3018L71.3584 5.74623C70.6979 6.31236 70.2107 6.99888 69.8635 7.73174L75.286 10.3003ZM75.3521 10.2224C75.3497 10.2246 75.3395 10.2334 75.3224 10.2436C75.3052 10.2538 75.2907 10.2596 75.2834 10.262L73.3861 4.56995C72.5929 4.83434 71.8796 5.25896 71.2694 5.82561L75.3521 10.2224ZM75.4221 10.212C75.4471 10.2023 75.4826 10.192 75.5508 10.192V4.192C74.7656 4.192 73.9904 4.33104 73.2474 4.61998L75.4221 10.212ZM75.5508 10.192C75.6626 10.192 75.7331 10.2128 75.8129 10.2575L78.7446 5.02248C77.7577 4.46986 76.6762 4.192 75.5508 4.192V10.192ZM75.8565 10.2814C75.8634 10.2852 75.8624 10.2852 75.8562 10.2805C75.8498 10.2757 75.8416 10.2686 75.8331 10.2596C75.8246 10.2508 75.8192 10.2435 75.8168 10.2401C75.8146 10.2367 75.8174 10.2403 75.8237 10.2534L81.2298 7.65055C80.682 6.51298 79.8222 5.60226 78.7011 4.99859L75.8565 10.2814ZM80.571 11.1477C80.8919 10.849 81.2622 10.6192 81.7079 10.455L79.6336 4.82497C78.4579 5.25812 77.399 5.90304 76.4825 6.75632L80.571 11.1477ZM81.6843 10.4636C82.203 10.2774 82.7033 10.192 83.1988 10.192V4.192C81.9876 4.192 80.8025 4.40526 79.6572 4.81642L81.6843 10.4636ZM83.1988 10.192C83.9504 10.192 84.5904 10.2934 85.14 10.4677L86.9535 4.74831C85.7537 4.3679 84.4951 4.192 83.1988 4.192V10.192ZM85.1597 10.4739C85.5598 10.5977 85.8789 10.7977 86.1621 11.0998L90.5394 6.99618C89.5426 5.93294 88.3257 5.17296 86.9338 4.74214L85.1597 10.4739ZM86.2294 11.1693C86.4882 11.4281 86.8024 11.8888 87.0781 12.7007L92.7594 10.7713C92.2671 9.32184 91.5359 7.99054 90.4721 6.92668L86.2294 11.1693ZM87.0781 12.7007C87.323 13.4218 87.4948 14.4789 87.4948 15.96H93.4948C93.4948 14.0705 93.2825 12.3115 92.7594 10.7713L87.0781 12.7007ZM87.4948 15.96V27.192H93.4948V15.96H87.4948ZM90.4948 24.192H83.9028V30.192H90.4948V24.192ZM86.9028 27.192V15.576H80.9028V27.192H86.9028ZM86.9028 15.576C86.9028 14.7402 86.7713 13.8261 86.3612 12.9546L80.9323 15.5094C80.8968 15.434 80.8899 15.3915 80.8917 15.4013C80.8938 15.4123 80.9028 15.4669 80.9028 15.576H86.9028ZM86.4428 13.1447C86.1576 12.4113 85.7186 11.6908 85.0659 11.0925L81.0116 15.5155C80.8709 15.3865 80.8373 15.2847 80.8507 15.3193L86.4428 13.1447ZM85.1601 11.1827C84.5904 10.613 83.8853 10.1744 83.0629 9.93943L81.4146 15.7086C81.3112 15.679 81.2107 15.6354 81.1193 15.5805C81.0287 15.5261 80.962 15.4698 80.9174 15.4253L85.1601 11.1827ZM83.2478 9.99877C82.6711 9.79282 82.0415 9.664 81.3748 9.664V15.664C81.2627 15.664 81.2091 15.6418 81.2297 15.6492L83.2478 9.99877ZM81.3748 9.664C80.708 9.664 80.0784 9.79282 79.5017 9.99877L81.5198 15.6492C81.5404 15.6418 81.4868 15.664 81.3748 15.664V9.664ZM79.6866 9.93943C78.8896 10.1671 78.2099 10.5807 77.6516 11.0925L81.7059 15.5155C81.6596 15.558 81.5346 15.6515 81.3349 15.7086L79.6866 9.93943ZM77.6516 11.0925C77.0351 11.6577 76.6009 12.3304 76.2973 13.0136L81.7802 15.4504C81.8179 15.3656 81.8104 15.4196 81.7059 15.5155L77.6516 11.0925ZM76.2647 13.0897C75.9229 13.9198 75.8148 14.7831 75.8148 15.576H81.8148C81.8148 15.4469 81.824 15.369 81.8299 15.3332C81.8358 15.2977 81.8363 15.3172 81.8128 15.3742L76.2647 13.0897ZM75.8148 15.576V27.192H81.8148V15.576H75.8148ZM78.8148 24.192H72.3188V30.192H78.8148V24.192Z" fill="#524D44" mask="url(#path-1-outside-1_4_76)"/>
</svg>
